# xmcd CD database file
#
# Track frame offsets:
#	182
#	19945
#	39422
#	69042
#	101952
#	128632
#	152202
#	170977
#	197462
#	234627
#
# Disc length: 3569 seconds
#
# Revision: 0
# Processed by: cddbd v1.4PL0 Copyright (c) Steve Scherf et al.
# Submitted via: CDex 1.50beta10
#
DISCID=820def0a
DTITLE=Various Artist - Dear Passion Jazz -- My First Jazz
DYEAR=1997
DGENRE=Jazz
TTITLE0=Every Breath You Take -- Leni Stern
TTITLE1=Look What They've Done To My Song -- John Tropea
TTITLE2=Walk On By -- Lenny White
TTITLE3=Yuki No Sabaku -- Tashiki Nunokawa VALIS
TTITLE4=Angel -- Ralph McDonald
TTITLE5=Memories Of Rio -- Luis Conte
TTITLE6=Triste --Camila Benson
TTITLE7=BesameMucho/Quizas Quizas quizas -- Camila Benson
TTITLE8=Stolen Moments -- Essence All Stars, Feat.-Kenny Burrell
TTITLE9=That The Way Of The World -- Richard Tee
EXTD=YEAR: 1997
EXTT0=
EXTT1=
EXTT2=
EXTT3=
EXTT4=
EXTT5=
EXTT6=
EXTT7=
EXTT8=
EXTT9=
PLAYORDER=
